<svg width="390" height="415" viewBox="0 0 390 415" fill="none" xmlns="http://www.w3.org/2000/svg">
<g clip-path="url(#clip0_31_133)">
<path fill-rule="evenodd" clip-rule="evenodd" d="M197.761 -159.567C262.828 -156.475 331.273 -132.294 371.001 -81.9508C407.734 -35.4025 383.053 30.6935 393.545 88.5304C401.981 135.029 433.464 176.275 426.321 222.978C418.406 274.72 393.174 324.097 352.326 358.011C309.545 393.53 252.881 423.375 197.761 412.74C144.338 402.432 127.696 334.828 82.0523 305.861C32.1116 274.166 -54.9565 291.536 -77.7842 237.865C-100.147 185.288 -26.9617 139.102 -12.309 84.0038C3.92192 22.971 -29.8122 -50.7626 11.8058 -99.0175C54.9229 -149.011 130.852 -162.746 197.761 -159.567Z" fill="#FDC435"/>
</g>
<defs>
<clipPath id="clip0_31_133">
<rect width="476" height="415" fill="white" transform="translate(-43)"/>
</clipPath>
</defs>
</svg>
